<svg xmlns="http://www.w3.org/2000/svg" width="24" height="24" viewBox="0 0 24 24">
    <g fill="none" fill-rule="evenodd">
        <path d="M0 0H24V24H0z"/>
        <path fill="#444" fill-rule="nonzero" d="M7.26 5.393l.094.083 4.533 4.533 4.534-4.533.094-.083c.392-.305.96-.277 1.32.083.39.39.39 1.024 0 1.414l-4.533 4.533 4.533 4.535c.39.39.39 1.023 0 1.414-.36.36-.928.388-1.32.083l-.094-.083-4.534-4.534-4.533 4.534-.094.083c-.393.305-.96.277-1.32-.083-.391-.39-.391-1.024 0-1.414l4.533-4.535L5.94 6.89c-.391-.39-.391-1.023 0-1.414.36-.36.927-.388 1.32-.083z"/>
    </g>
</svg>
