<svg xmlns="http://www.w3.org/2000/svg" width="24" height="24" viewBox="0 0 24 24">
    <g fill="none" fill-rule="evenodd">
        <path d="M0 0H24V24H0z"/>
        <path fill="#868686" fill-opacity=".6" fill-rule="nonzero" d="M19.723 18.847L15.3 14.424c2.04-2.483 1.898-6.17-.424-8.484-1.193-1.189-2.777-1.844-4.461-1.844-1.692 0-3.282.66-4.476 1.858-1.192 1.195-1.846 2.783-1.843 4.472.003 1.688.663 3.274 1.859 4.464 1.191 1.19 2.775 1.845 4.46 1.845 1.48 0 2.883-.505 4.01-1.435l4.422 4.422c.121.121.28.182.438.182.158 0 .317-.06.438-.182.241-.241.241-.633 0-.875zM6.829 14.014c-.962-.958-1.492-2.233-1.495-3.59-.003-1.358.524-2.635 1.481-3.596.961-.963 2.24-1.494 3.6-1.494 1.354 0 2.628.527 3.587 1.483 1.984 1.977 1.989 5.2.012 7.185-.96.964-2.239 1.495-3.6 1.495-1.353 0-2.627-.527-3.585-1.483z"/>
    </g>
</svg>
